<svg xmlns="http://www.w3.org/2000/svg" viewBox="0 0 637.26 610.55"><defs><style>.cls-1,.cls-2,.cls-3,.cls-4,.cls-5,.cls-6{fill:none;stroke-miterlimit:10;}.cls-1,.cls-2,.cls-5{stroke:#f79e1b;}.cls-1,.cls-3,.cls-4,.cls-6{stroke-width:16px;}.cls-2{stroke-width:50px;}.cls-3{stroke:#e61b25;}.cls-4{stroke:#eb001b;}.cls-5{stroke-width:4px;}.cls-6{stroke:#f26122;}.cls-7{isolation:isolate;}.cls-8{fill:#e35205;}</style></defs><title>Asset 10</title><g id="Layer_2" data-name="Layer 2"><g id="Layer_1-2" data-name="Layer 1"><g id="Layer_2-2" data-name="Layer 2-2"><path class="cls-1" d="M317.64,61.34H446.07a30.85,30.85,0,0,1,30.85,30.85h0v111.4a33.6,33.6,0,0,1-33.59,33.61H317.64"/><line class="cls-2" x1="317.4" y1="115.56" x2="474.08" y2="115.69"/><polyline class="cls-3" points="314.76 101.11 171.98 101.11 171.98 267.11 314.76 267.11"/><path class="cls-4" d="M314.76,131.06h-78.1c-.49,5.68-2.14,13.36-7.9,18.69-7.27,6.71-20.85,8.38-20.85,8.38V210.6a27,27,0,0,1,28,26c0,.44,0,.89,0,1.33h78.82"/><path class="cls-5" d="M449.4,201.86H439.19l-2-2v-20.6l2-2H449.4l2,2v20.6Z"/><path class="cls-5" d="M425.3,177.3,414,177.22v12.34l8.87-.06,1.67,1.77v8.85l-1.77,1.78H414l-3.83-2.08"/><path class="cls-5" d="M397.07,201.86H386.8l-2-2v-20.6l2-2h10.27l2,2v20.6Z"/><path class="cls-5" d="M373.8,177.3l-11.34-.08v12.34l8.87-.06,1.67,1.77v8.85l-1.77,1.78h-8.77l-3.83-2.08"/><path class="cls-6" d="M315.24,0q0,31.34-.08,62.66-.18,143.09-.4,286.17"/><g class="cls-7"><path class="cls-8" d="M0,433.45H14.07L33,465.67,51.9,433.45H66v71.47H52.78V456.65L33,491.4l-19.8-34.75v48.27H0Z"/><path class="cls-8" d="M97.75,433.45h13.41l26,71.47H123.7l-7.15-19.79H92.47l-7.26,19.79H71.8Zm-.88,39.47H112L104.45,452Z"/><path class="cls-8" d="M144.14,488.32a44.86,44.86,0,0,0,23.09,5.93c9,0,14.85-2.85,14.85-8.13,0-6.16-5.61-8.69-16.06-11-10.77-2.86-24.85-7.8-24.85-23.42,0-15.83,13.31-19.9,26.72-19.9,13.09,0,21.55,3.85,26.83,7l-5.28,11.21c-4.06-2.75-11.32-5.93-21.55-5.93-7,0-13.41,1.86-13.41,7.58,0,7,9.35,8.58,14.4,10.23,17.71,4.84,26.5,10.88,26.5,24.19,0,17.59-16.49,20.45-28.15,20.45A55.8,55.8,0,0,1,139,499.42Z"/><path class="cls-8" d="M198.24,433.45h60.14v12.31H235v59.16h-13.3V445.76H198.24Z"/><path class="cls-8" d="M278.39,492.71H317v12.21H265.2V433.45H317v12.31H278.39v15.4h34.2v12.2h-34.2Z"/><path class="cls-8" d="M351.73,476.11H339v28.81H325.78V433.45h27.16c19.46,0,27.15,9,27.15,21.44,0,8.8-4.28,16.05-14.73,19.35l20.34,30.68H370.53ZM339,445.76v18.15h14c10.44,0,14-4.07,14-9,0-5.5-3.52-9.13-14-9.13Z"/><path class="cls-8" d="M402.74,471.82c0,16.61,7.7,22.43,19.35,22.43,7.81,0,15.29-3.4,18.14-6.15l4.95,11.32a39.19,39.19,0,0,1-23.09,7.15c-18.91,0-32.54-10-32.54-34.75v-5.27c0-24.74,13.63-34.75,32.54-34.75a40,40,0,0,1,23.09,7l-4.95,11.32a33.63,33.63,0,0,0-18.14-6c-11.65,0-19.35,5.93-19.35,22.43Z"/><path class="cls-8" d="M472,433.45h13.41l25.95,71.47H498l-7.15-19.79H466.73l-7.26,19.79H446.06Zm-.88,39.47H486.3L478.72,452Z"/><path class="cls-8" d="M543.15,476.11H530.39v28.81H517.2V433.45h27.15c19.47,0,27.16,9,27.16,21.44,0,8.8-4.28,16.05-14.73,19.35l20.34,30.68H562Zm-12.76-30.35v18.15h14c10.45,0,14-4.07,14-9,0-5.5-3.52-9.13-14-9.13Z"/><path class="cls-8" d="M582.94,433.45h22.21c19.47,0,32.11,9.35,32.11,33V472c0,23.53-12.64,32.88-32.11,32.88H582.94Zm41.13,33c0-15.62-6.6-20.68-18.92-20.68h-9v46.95h9c12.32,0,18.92-5,18.92-20.67Z"/></g><g class="cls-7"><path class="cls-8" d="M59.76,537.43H73V596.7h32.33v12.2H59.76Z"/><path class="cls-8" d="M110.12,570.53c0-25,12.42-34.75,29.35-34.75s29.47,9.79,29.47,34.75v5.27c0,25-12.42,34.75-29.47,34.75s-29.35-9.79-29.35-34.75Zm45.52,0c0-16.94-6.49-22.43-16.17-22.43s-16,5.49-16,22.43v5.27c0,16.94,6.38,22.43,16,22.43s16.17-5.49,16.17-22.43Z"/><path class="cls-8" d="M190.93,575.8c0,16.61,7.7,22.43,19.35,22.43,7.81,0,15.29-3.4,18.14-6.15l5,11.32a39.22,39.22,0,0,1-23.09,7.15c-18.91,0-32.55-10-32.55-34.75v-5.27c0-24.74,13.64-34.75,32.55-34.75a40,40,0,0,1,23.09,7l-5,11.32a33.63,33.63,0,0,0-18.14-6c-11.65,0-19.35,5.93-19.35,22.43Z"/><path class="cls-8" d="M260.2,537.43h13.41l25.95,71.47H286.15L279,589.11H254.92l-7.26,19.79H234.25Zm-.88,39.47h15.17L266.9,556Z"/><path class="cls-8" d="M299.45,537.43h60.14v12.32H336.17V608.9h-13.3V549.75H299.45Z"/><path class="cls-8" d="M366.41,537.43H379.6V608.9H366.41Z"/><path class="cls-8" d="M390.37,570.53c0-25,12.43-34.75,29.36-34.75s29.47,9.79,29.47,34.75v5.27c0,25-12.43,34.75-29.47,34.75s-29.36-9.79-29.36-34.75Zm45.53,0c0-16.94-6.49-22.43-16.17-22.43s-16.05,5.49-16.05,22.43v5.27c0,16.94,6.38,22.43,16.05,22.43s16.17-5.49,16.17-22.43Z"/><path class="cls-8" d="M460,537.43h14.41l26.72,47.72V537.43h13.19V608.9H499.78l-26.61-47.61V608.9H460Z"/><path class="cls-8" d="M528.25,592.3a44.86,44.86,0,0,0,23.09,5.93c9,0,14.85-2.85,14.85-8.13,0-6.16-5.61-8.69-16.06-11-10.77-2.86-24.85-7.8-24.85-23.42,0-15.83,13.31-19.9,26.72-19.9,13.09,0,21.55,3.85,26.83,7L573.55,554c-4.07-2.75-11.32-5.93-21.55-5.93-7,0-13.41,1.86-13.41,7.58,0,7,9.34,8.58,14.4,10.23,17.7,4.84,26.5,10.88,26.5,24.19,0,17.59-16.49,20.45-28.15,20.45a55.87,55.87,0,0,1-28.26-7.15Z"/></g></g></g></g></svg>